<svg width="23" height="50" fill="none" xmlns="http://www.w3.org/2000/svg"><mask id="a" maskUnits="userSpaceOnUse" x="0" y="0" width="23" height="50"><path d="M0 0h22.014v49.9H0V0z" fill="#fff"/></mask><g mask="url(#a)"><path fill-rule="evenodd" clip-rule="evenodd" d="M16.844 0H5.16A5.17 5.17 0 00-.006 5.165v39.567a5.174 5.174 0 005.165 5.173h11.677c2.85 0 5.177-2.321 5.177-5.173V5.165A5.175 5.175 0 0016.844 0z" fill="#FFFFFE"/></g><path fill-rule="evenodd" clip-rule="evenodd" d="M13.947 9.149l.012.169c.357.207.537.376.896.608.953.6 2.127 1.665 1.98 5.34.266.8.384 2.375.631 2.88.496.984.828 1.624.973 2.553 0 0 .143 1.446.33 1.551.985.222.7.32.844.488.153.198.722.189.722.72.197.263.343.538.454.823V5.165a3.95 3.95 0 00-3.944-3.947H13.07c.607.215.949.47 1.149.874.487.042 1.067 1.134.164 2.748.4.266.088.664-.2 1.126-.083.149-.175.411-.442.394-.343.721-.757 1.42-1.07 1.464-.095.117-.163.428-.02.573.459.207 1.019.489 1.296.752zM20.79 26.871a3.518 3.518 0 01-3.278 2.219 3.517 3.517 0 01-3.52-3.52 3.516 3.516 0 012.69-3.424c-.406-1.016-1.263-2.662-1.517-3.202-.241-.537-.822-3.884-.947-4.546-.028-.145-1.518.864-1.521.927-.087.084-1.118 2.777-1.162 2.923-.02.091-.023.451-.023.451s.507.063.799.947c.288.884 1.169 4.109 1.169 4.109s-.238.246-.249.231c1.112 3.723.724 5.325 1.223 6.417.627 1.539.796 1.337 1.334 2.63.386.942.817 4.65.96 4.813.601.762.924 1.357.924 1.786 0 .432-.508 1.708-.323 2.452.113.437.171 1.418.375 1.604 0 0 .187.368.095.532-.026.056-.08.142-.056.209.331 1.17 1.4 3.163-.33 4.207h.036a3.923 3.923 0 003.32-3.904v-17.86z" fill="#B52532"/><path fill-rule="evenodd" clip-rule="evenodd" d="M16.343 43.974c-.634-.566-.21-.805-.236-1.029-.418-1.728-1.791-2.774-1.081-3.344-.175-.571-.532-1.288-.519-1.286-2.14-1.229-3.961-3.225-4.27-3.517-.376-.408-1.015-.818-1.135-1.149-.514-.472-3.036-4.05-3.624-5.367l-1.023-.144c-.465-1.902-2.02-3.497-2.058-5.403-.015-.721.326-2.266.453-2.574.125-.312.72-.825.72-.825v-.51c-2.232.063-1.59-.165-1.975-1.033-.27-.6-.077-.733.02-1.15.3-1.23 1.296-3.128 1.707-3.99.126-.435.556-1.484.556-1.484 1.665-3.389 2.286-3.14 4.262-3.33l.098-.14c1.98-.086 1.656-.236 1.935-2.144-.289.124-.374-.597-.374-.597-.158-1.086.3-.88.517-.902.047-1.785.23-2.346 1.517-2.838h-6.67a3.95 3.95 0 00-3.95 3.95v39.564a3.95 3.95 0 003.95 3.953h11.683c-1.338-.723-.548-2.099-.503-4.71z" fill="#253B73"/><path fill-rule="evenodd" clip-rule="evenodd" d="M4.533 46.198H3.7v-7.163H5.02l1.062 5.87c-.09-1.405-.209-3.1-.209-4.546v-1.324h.835v7.163H5.496l-1.062-5.74c.07 1.325.1 2.38.1 3.483v2.257zm7.346-6.36h-.05c-.059.862-.178 2.377-.218 2.859l-.109 1.234h.745l-.11-1.234c-.04-.492-.178-1.986-.258-2.86zm.428 4.905h-.864l-.12 1.455h-.963l.864-7.163h1.37l.834 7.163h-1.002l-.12-1.455zm-3.981-4.805v2.367h.357c.337 0 .427-.12.427-.511v-1.375c0-.331-.1-.481-.417-.481h-.367zm0 3.15v2.207h.367c.327 0 .417-.17.417-.512V43.57c0-.351-.11-.481-.427-.481h-.357zm-.953 3.11v-7.163h1.39c.803 0 1.3.431 1.3 1.435v1.063c0 .652-.199.983-.477 1.144.278.19.477.512.477 1.053v1.044c0 .983-.527 1.424-1.3 1.424h-1.39z" fill="#FFFFFE"/></svg>